<?xml version="1.0" encoding="UTF-8"?>
<svg version="1.1" xmlns="http://www.w3.org/2000/svg" width="430" height="374">
<path d="M0 0 C141.9 0 283.8 0 430 0 C430 123.42 430 246.84 430 374 C288.1 374 146.2 374 0 374 C0 250.58 0 127.16 0 0 Z " fill="#FDFDFD" transform="translate(0,0)"/>
<path d="M0 0 C3.74823954 3.36377663 7.09168428 6.88481456 10.1640625 10.87890625 C11.0921875 12.07 11.0921875 12.07 12.0390625 13.28515625 C21.28765271 25.56844013 28.1632717 37.84272166 32.86010742 52.45751953 C33.6017659 54.75453621 34.37970563 57.03689613 35.16210938 59.3203125 C39.8295629 73.28395765 41.56371347 86.95346151 41.3515625 101.69140625 C41.34366699 102.66770996 41.33577148 103.64401367 41.32763672 104.64990234 C41.11594487 122.53040958 41.11594487 122.53040958 39.2109375 127.23046875 C37.92209934 130.49103694 37.39281451 133.67686535 36.7890625 137.12890625 C35.82095071 142.29030019 34.60057235 146.94338656 32.24609375 151.65234375 C30.97225973 154.27359065 30.00206915 156.96377 28.9765625 159.69140625 C26.08975578 166.62325217 21.89766504 172.09908244 17.1640625 177.87890625 C16.71691895 178.43288086 16.26977539 178.98685547 15.80908203 179.55761719 C10.39948437 186.24508751 4.9121009 192.49622971 -1.8359375 197.87890625 C-2.58101562 198.51054687 -3.32609375 199.1421875 -4.09375 199.79296875 C-16.59700817 210.20564999 -38.76272057 225.94598231 -55.8359375 224.87890625 C-55.8359375 225.53890625 -55.8359375 226.19890625 -55.8359375 226.87890625 C-66.51474625 229.06755833 -77.0395227 229.2513299 -87.90136719 229.24951172 C-90.83066416 229.25389835 -93.75846665 229.29037214 -96.6875 229.328125 C-106.09340379 229.38320491 -114.36414717 229.18424976 -123.24682617 225.82006836 C-125.90392726 224.85419144 -128.34919383 224.41276688 -131.1484375 224.06640625 C-151.16451785 220.75965613 -169.55050807 206.37328584 -183.8359375 192.87890625 C-184.58617187 192.193125 -185.33640625 191.50734375 -186.109375 190.80078125 C-196.65702503 180.80827069 -203.7938113 168.97017969 -209.8359375 155.87890625 C-210.21234375 155.14929688 -210.58875 154.4196875 -210.9765625 153.66796875 C-213.51693598 148.56706009 -215.01367727 143.16577307 -216.5234375 137.69140625 C-216.84562256 136.56085815 -216.84562256 136.56085815 -217.17431641 135.4074707 C-220.35104479 123.33412531 -220.01732433 110.65141611 -220.0234375 98.25390625 C-220.03568359 96.9390625 -220.04792969 95.62421875 -220.06054688 94.26953125 C-220.07620154 83.77046864 -219.03083665 73.89437724 -215.80078125 63.8828125 C-215.02279851 61.46067191 -214.29644804 59.03700478 -213.58984375 56.59375 C-209.02307916 41.08172863 -202.93214778 27.61841568 -192.8359375 14.87890625 C-192.22234375 14.06292969 -191.60875 13.24695313 -190.9765625 12.40625 C-182.10582555 0.84130162 -172.12485478 -8.33190628 -159.8359375 -16.12109375 C-158.959375 -16.68570313 -158.0828125 -17.2503125 -157.1796875 -17.83203125 C-148.61698013 -23.17017477 -139.52074262 -27.29164317 -129.8359375 -30.12109375 C-128.99160156 -30.37761719 -128.14726562 -30.63414063 -127.27734375 -30.8984375 C-80.69433679 -43.88482363 -35.57606805 -31.27414451 0 0 Z " fill="#FCFCFC" transform="translate(303.8359375,79.12109375)"/>
<path d="M0 0 C3.74823954 3.36377663 7.09168428 6.88481456 10.1640625 10.87890625 C11.0921875 12.07 11.0921875 12.07 12.0390625 13.28515625 C21.28765271 25.56844013 28.1632717 37.84272166 32.86010742 52.45751953 C33.6017659 54.75453621 34.37970563 57.03689613 35.16210938 59.3203125 C39.8295629 73.28395765 41.56371347 86.95346151 41.3515625 101.69140625 C41.34366699 102.66770996 41.33577148 103.64401367 41.32763672 104.64990234 C41.11594487 122.53040958 41.11594487 122.53040958 39.2109375 127.23046875 C37.92209934 130.49103694 37.39281451 133.67686535 36.7890625 137.12890625 C35.82095071 142.29030019 34.60057235 146.94338656 32.24609375 151.65234375 C30.97225973 154.27359065 30.00206915 156.96377 28.9765625 159.69140625 C26.08975578 166.62325217 21.89766504 172.09908244 17.1640625 177.87890625 C16.71691895 178.43288086 16.26977539 178.98685547 15.80908203 179.55761719 C10.39948437 186.24508751 4.9121009 192.49622971 -1.8359375 197.87890625 C-2.58101562 198.51054687 -3.32609375 199.1421875 -4.09375 199.79296875 C-16.59700817 210.20564999 -38.76272057 225.94598231 -55.8359375 224.87890625 C-55.8359375 225.53890625 -55.8359375 226.19890625 -55.8359375 226.87890625 C-66.51474625 229.06755833 -77.0395227 229.2513299 -87.90136719 229.24951172 C-90.83066416 229.25389835 -93.75846665 229.29037214 -96.6875 229.328125 C-106.09340379 229.38320491 -114.36414717 229.18424976 -123.24682617 225.82006836 C-125.90392726 224.85419144 -128.34919383 224.41276688 -131.1484375 224.06640625 C-151.16451785 220.75965613 -169.55050807 206.37328584 -183.8359375 192.87890625 C-184.58617187 192.193125 -185.33640625 191.50734375 -186.109375 190.80078125 C-196.65702503 180.80827069 -203.7938113 168.97017969 -209.8359375 155.87890625 C-210.21234375 155.14929688 -210.58875 154.4196875 -210.9765625 153.66796875 C-213.51693598 148.56706009 -215.01367727 143.16577307 -216.5234375 137.69140625 C-216.84562256 136.56085815 -216.84562256 136.56085815 -217.17431641 135.4074707 C-220.35104479 123.33412531 -220.01732433 110.65141611 -220.0234375 98.25390625 C-220.03568359 96.9390625 -220.04792969 95.62421875 -220.06054688 94.26953125 C-220.07620154 83.77046864 -219.03083665 73.89437724 -215.80078125 63.8828125 C-215.02279851 61.46067191 -214.29644804 59.03700478 -213.58984375 56.59375 C-209.02307916 41.08172863 -202.93214778 27.61841568 -192.8359375 14.87890625 C-192.22234375 14.06292969 -191.60875 13.24695313 -190.9765625 12.40625 C-182.10582555 0.84130162 -172.12485478 -8.33190628 -159.8359375 -16.12109375 C-158.959375 -16.68570313 -158.0828125 -17.2503125 -157.1796875 -17.83203125 C-148.61698013 -23.17017477 -139.52074262 -27.29164317 -129.8359375 -30.12109375 C-128.99160156 -30.37761719 -128.14726562 -30.63414063 -127.27734375 -30.8984375 C-80.69433679 -43.88482363 -35.57606805 -31.27414451 0 0 Z M-72.8359375 27.87890625 C-74.04056641 28.78382812 -74.04056641 28.78382812 -75.26953125 29.70703125 C-78.99983202 32.86387635 -81.6501969 36.70653685 -84.5546875 40.61328125 C-86.8359375 42.87890625 -86.8359375 42.87890625 -89.4296875 43.40625 C-92.33342945 42.76987798 -93.07219405 42.04139398 -94.8359375 39.69140625 C-101.99023514 30.36236473 -113.06273041 21.29119997 -124.8359375 18.87890625 C-128.02519116 18.57700382 -131.19589653 18.47602497 -134.3984375 18.44140625 C-135.19000244 18.43109375 -135.98156738 18.42078125 -136.79711914 18.41015625 C-146.69552167 18.55790892 -153.98967241 22.08014271 -161.8359375 27.87890625 C-162.8259375 28.58015625 -163.8159375 29.28140625 -164.8359375 30.00390625 C-171.8311819 36.041701 -177.15118472 44.47508413 -180.8359375 52.87890625 C-181.23296875 53.67296875 -181.63 54.46703125 -182.0390625 55.28515625 C-187.68933552 66.8580046 -190.95554213 79.58122594 -190.96875 92.484375 C-190.97003906 93.71607422 -190.97132813 94.94777344 -190.97265625 96.21679688 C-190.96878906 97.48716797 -190.96492188 98.75753906 -190.9609375 100.06640625 C-190.96480469 101.31744141 -190.96867187 102.56847656 -190.97265625 103.85742188 C-191.05576751 119.55252977 -191.05576751 119.55252977 -187.2734375 134.62890625 C-186.81839844 135.82 -186.36335938 137.01109375 -185.89453125 138.23828125 C-185.54519531 139.1096875 -185.19585937 139.98109375 -184.8359375 140.87890625 C-184.1759375 140.87890625 -183.5159375 140.87890625 -182.8359375 140.87890625 C-182.7946875 141.82765625 -182.7534375 142.77640625 -182.7109375 143.75390625 C-181.34883836 153.02737571 -173.68980007 160.98645516 -167.8359375 167.87890625 C-167.09601563 168.77738281 -166.35609375 169.67585937 -165.59375 170.6015625 C-155.16739169 182.75425226 -139.21421422 195.20173758 -122.8359375 196.87890625 C-122.8359375 197.53890625 -122.8359375 198.19890625 -122.8359375 198.87890625 C-114.14571704 201.14035478 -105.81047808 202.56045481 -96.8359375 202.87890625 C-96.12663086 202.9061377 -95.41732422 202.93336914 -94.68652344 202.96142578 C-78.47599622 203.50959121 -63.61437145 202.07447478 -48.8359375 194.87890625 C-47.82917969 194.41355469 -46.82242188 193.94820312 -45.78515625 193.46875 C-38.96208901 190.21760614 -32.84414691 186.45525267 -26.8359375 181.87890625 C-25.90523437 181.17636719 -24.97453125 180.47382813 -24.015625 179.75 C-17.97472948 175.01769084 -13.19387276 170.18470651 -8.8359375 163.87890625 C-8.07023437 162.81736328 -8.07023437 162.81736328 -7.2890625 161.734375 C-3.13077743 155.78631259 0.09135041 149.44260537 3.1640625 142.87890625 C3.48503906 142.21858398 3.80601562 141.55826172 4.13671875 140.87792969 C13.10868399 121.79134326 15.36164871 97.38049632 10.1640625 76.87890625 C9.50157227 75.54349286 8.83488607 74.21015302 8.1640625 72.87890625 C7.71235248 71.07482049 7.29918636 69.26086962 6.9140625 67.44140625 C5.25454142 60.4679783 2.35077062 54.27294842 -0.8359375 47.87890625 C-1.4959375 47.87890625 -2.1559375 47.87890625 -2.8359375 47.87890625 C-3.20525391 46.54472656 -3.20525391 46.54472656 -3.58203125 45.18359375 C-5.67467246 39.66840849 -9.75288265 36.03257997 -13.8359375 31.87890625 C-14.55265625 31.13769531 -15.269375 30.39648438 -16.0078125 29.6328125 C-24.71512218 21.2273986 -35.44651624 17.46997619 -47.40625 17.6015625 C-57.22685964 18.39571203 -65.50661328 21.32022686 -72.8359375 27.87890625 Z " fill="#252223" transform="translate(303.8359375,79.12109375)"/>
<path d="M0 0 C3.34546984 0.97974474 5.42059436 2.5450022 8.171875 4.67578125 C11.88654489 7.53972304 15.48191847 9.80920367 19.734375 11.80078125 C19.734375 12.46078125 19.734375 13.12078125 19.734375 13.80078125 C20.8790625 14.14109375 20.8790625 14.14109375 22.046875 14.48828125 C25.07790103 15.56712102 27.88604236 16.75999941 30.796875 18.11328125 C46.32510483 25.22864263 61.58047671 30.21331898 78.734375 30.80078125 C78.734375 33.80078125 78.734375 33.80078125 77.265625 35.4140625 C75.10064985 37.22514748 72.92552013 39.02142029 70.734375 40.80078125 C70.11046875 41.35636719 69.4865625 41.91195312 68.84375 42.484375 C63.33210872 47.1275854 57.72897379 48.50166143 50.734375 49.80078125 C49.75855469 50.00574219 48.78273437 50.21070313 47.77734375 50.421875 C33.95352199 52.99498688 17.2189069 54.55697745 4.921875 46.6328125 C-1.17825752 41.92046013 -5.24260571 36.21851866 -7.265625 28.80078125 C-7.63571698 25.78498211 -7.64285571 22.83535678 -7.578125 19.80078125 C-7.58134766 19.04539062 -7.58457031 18.29 -7.58789062 17.51171875 C-7.53358558 11.76525713 -7.10868412 5.697017 -3.953125 0.73828125 C-2.265625 -0.19921875 -2.265625 -0.19921875 0 0 Z " fill="#262324" transform="translate(123.265625,287.19921875)"/>
<path d="M0 0 C3.34116097 1.73989918 4.35595018 4.50802901 5.89453125 7.828125 C8.2353618 15.29472679 8.20718261 23.79186474 5.1328125 31.04296875 C4.41538838 32.37355467 3.66819465 33.68882982 2.8828125 34.98046875 C2.3259375 35.99109375 1.7690625 37.00171875 1.1953125 38.04296875 C-4.55718299 45.35019275 -10.73918993 50.83959313 -20.1171875 51.98046875 C-22.57299611 52.11957773 -25.03263035 52.20004124 -27.4921875 52.23046875 C-28.73742187 52.25625 -29.98265625 52.28203125 -31.265625 52.30859375 C-35.01256743 51.98938162 -37.59144533 51.22488188 -41.01464844 49.81835938 C-43.2302818 48.93539912 -45.45274052 48.23141926 -47.73828125 47.55078125 C-63.08011046 42.95420819 -63.08011046 42.95420819 -69.32421875 39.078125 C-72.11976031 37.36669324 -75.08651383 36.21747841 -78.1171875 34.98046875 C-78.7771875 34.65046875 -79.4371875 34.32046875 -80.1171875 33.98046875 C-80.1171875 33.32046875 -80.1171875 32.66046875 -80.1171875 31.98046875 C-79.56675781 31.96628906 -79.01632813 31.95210938 -78.44921875 31.9375 C-71.64723431 31.54730864 -65.16883303 30.22008357 -58.5546875 28.66796875 C-57.24431519 28.36693237 -57.24431519 28.36693237 -55.9074707 28.05981445 C-46.81398853 25.86160545 -38.4414547 22.32941103 -30.1171875 18.10546875 C-29.08537354 17.58339844 -29.08537354 17.58339844 -28.03271484 17.05078125 C-19.35327935 12.61630094 -11.67350899 7.904056 -4.34375 1.421875 C-2.1171875 -0.01953125 -2.1171875 -0.01953125 0 0 Z " fill="#282526" transform="translate(306.1171875,286.01953125)"/>
<path d="M0 0 C-0.68418349 2.82255627 -1.46010776 5.60030485 -2.3046875 8.37890625 C-2.55710205 9.21244629 -2.8095166 10.04598633 -3.06958008 10.90478516 C-3.33536865 11.78183105 -3.60115723 12.65887695 -3.875 13.5625 C-4.68170872 16.24928486 -5.48616284 18.93673218 -6.28955078 21.62451172 C-6.8665357 23.55374308 -7.44649304 25.48208528 -8.02734375 27.41015625 C-11.31180914 38.7668898 -11.25346098 50.38908543 -11.5625 62.125 C-11.60579302 63.66928003 -11.64941033 65.213551 -11.69335938 66.7578125 C-11.79930941 70.50511139 -11.9008787 74.25251353 -12 78 C-21.85233732 78.1759346 -28.02603175 76.45263794 -35.46875 69.71875 C-39.54824243 65.13972788 -38.55586476 57.79571981 -38.2265625 52 C-36.15971221 33.75470087 -19.61536366 18.94777353 -7.875 6.125 C-7.31868896 5.51180908 -6.76237793 4.89861816 -6.18920898 4.2668457 C-2.235515 0 -2.235515 0 0 0 Z " fill="#2A2729" transform="translate(87,122)"/>
<path d="M0 0 C10.78796822 6.84115058 19.48380448 15.9507989 26 27 C26 27.66 26 28.32 26 29 C26.66 29 27.32 29 28 29 C34.20137067 38.70649322 37.99920414 50.3980612 36 62 C33.23915229 67.99162694 28.89857955 71.35580917 23 74 C18.65446128 75.44298423 14.57991445 76.09508473 10 76 C9.98541748 75.15630859 9.97083496 74.31261719 9.95581055 73.44335938 C9.62448549 56.18167489 8.87257986 39.24986089 6.25952148 22.14941406 C6 20 6 20 6 16 C5.34 16 4.68 16 4 16 C3.32815382 13.89748139 2.66269032 11.79292237 2 9.6875 C1.443125 7.92986328 1.443125 7.92986328 0.875 6.13671875 C0 3 0 3 0 0 Z " fill="#2A2728" transform="translate(343,124)"/>
<path d="M0 0 C3.3911254 2.85181389 4.52238906 5.55319139 5.0546875 9.921875 C5.05597656 11.20191406 5.05726563 12.48195312 5.05859375 13.80078125 C5.07792969 15.07824219 5.09726563 16.35570312 5.1171875 17.671875 C4.44870487 22.64601743 2.50329688 25.65917907 -1.1953125 29.0078125 C-2.05962891 29.58595703 -2.05962891 29.58595703 -2.94140625 30.17578125 C-3.52019531 30.57410156 -4.09898437 30.97242188 -4.6953125 31.3828125 C-8.56611764 33.63704009 -11.99623869 33.66553419 -16.37890625 33.36328125 C-20.51153096 31.49376055 -23.27941112 28.63031666 -26.37890625 25.36328125 C-27.03890625 24.70328125 -27.69890625 24.04328125 -28.37890625 23.36328125 C-30.2640067 17.84262993 -30.67337744 10.55482228 -28.47265625 5.12890625 C-22.00705477 -4.56949598 -9.77184012 -5.10657451 0 0 Z " fill="#2C2A2B" transform="translate(176.37890625,126.63671875)"/>
<path d="M0 0 C4.34282427 2.40550489 6.75209043 5.06809371 8.13671875 9.85546875 C9.18250265 15.85603461 9.66813193 21.74713835 6.7890625 27.2890625 C4.49978758 30.21424713 4.01053638 30.68523852 0.5390625 31.1640625 C0.2090625 32.1540625 -0.1209375 33.1440625 -0.4609375 34.1640625 C-2.85868495 34.29978405 -5.24868995 34.39843118 -7.6484375 34.4765625 C-8.65874023 34.5394043 -8.65874023 34.5394043 -9.68945312 34.60351562 C-13.63573471 34.6997664 -15.23275822 34.35311638 -18.30859375 31.8046875 C-19.37400391 30.49757812 -19.37400391 30.49757812 -20.4609375 29.1640625 C-21.2034375 28.3184375 -21.9459375 27.4728125 -22.7109375 26.6015625 C-26.22429267 21.70796066 -25.96845092 15.99585311 -25.4609375 10.1640625 C-23.79375868 5.42576481 -21.60731705 2.9628687 -17.4609375 0.1640625 C-11.91268692 -1.68535436 -5.57201627 -1.89271664 0 0 Z " fill="#282627" transform="translate(272.4609375,124.8359375)"/>
<path d="M0 0 C0.66344421 -0.0038269 1.32688843 -0.00765381 2.01043701 -0.01159668 C3.41240966 -0.01431264 4.81443325 -0.00697319 6.21630859 0.00976562 C8.33939788 0.03104973 10.45905145 0.01003035 12.58203125 -0.015625 C20.06624595 -0.02885501 25.74329517 0.37515643 32.109375 4.53125 C32.51862181 8.62371812 32.51920679 10.88117199 30.296875 14.40625 C26.04699666 18.93701111 20.98997974 22.71259503 16.109375 26.53125 C15.46097656 27.13582031 14.81257813 27.74039063 14.14453125 28.36328125 C12.109375 29.53125 12.109375 29.53125 9.375 29.6796875 C4.50694206 27.96771497 1.49139479 24.73505338 -2.140625 21.15625 C-2.85992187 20.47046875 -3.57921875 19.7846875 -4.3203125 19.078125 C-7.18327241 16.32239205 -9.6779721 13.85022935 -11.890625 10.53125 C-11.74501289 7.10936537 -11.33751106 5.12512744 -9.26660156 2.37304688 C-6.07033574 -0.10461746 -4.01711474 0.01477268 0 0 Z " fill="#292627" transform="translate(203.890625,144.46875)"/>
<path d="M0 0 C2.72286806 4.08430208 2.38524534 6.14590877 2 11 C-1.7205836 13.48038907 -3.59796571 13.46337203 -8 13 C-10.8520847 11.02547983 -11.81895125 9.90524375 -12.5 6.5 C-11.08831533 -0.55842334 -6.10470957 -0.6892414 0 0 Z " fill="#F0EFEF" transform="translate(268,130)"/>
<path d="M0 0 C1.8125 1.0625 1.8125 1.0625 3 3 C3.36528977 6.4093712 3.6140629 8.88023824 1.9375 11.9375 C-1.08637476 13.5957539 -3.62386983 13.30144019 -7 13 C-7.99 12.34 -8.98 11.68 -10 11 C-10.64282362 5.93776401 -10.64282362 5.93776401 -10 3 C-6.91012143 0.17496816 -4.1336821 -0.65268665 0 0 Z " fill="#EDECEC" transform="translate(168,130)"/>
<path d="M0 0 C2.97 1.98 2.97 1.98 6 4 C5.67 4.99 5.34 5.98 5 7 C4.34 7 3.68 7 3 7 C3.350625 7.7425 3.70125 8.485 4.0625 9.25 C5.0720098 12.21122875 4.87980884 13.12062561 4 16 C3.32815382 13.89748139 2.66269032 11.79292237 2 9.6875 C1.443125 7.92986328 1.443125 7.92986328 0.875 6.13671875 C0 3 0 3 0 0 Z " fill="#494848" transform="translate(343,124)"/>
<path d="M0 0 C0.66 0 1.32 0 2 0 C1.38722388 2.96175123 0.74627478 4.38058783 -1 7 C-3.63965207 8.61785127 -4.84012675 9 -8 9 C-6.71520959 7.49410612 -5.42195918 5.99542625 -4.125 4.5 C-3.04605469 3.24703125 -3.04605469 3.24703125 -1.9453125 1.96875 C-1.30335937 1.3190625 -0.66140625 0.669375 0 0 Z " fill="#4E4D4D" transform="translate(85,122)"/>
<path d="M0 0 C-0.33 0.66 -0.66 1.32 -1 2 C-2.1446875 1.9071875 -2.1446875 1.9071875 -3.3125 1.8125 C-5.98008173 1.77241463 -5.98008173 1.77241463 -7.75 3.1875 C-9.28838998 5.41816548 -9.64005447 7.3364031 -10 10 C-10.66 9.67 -11.32 9.34 -12 9 C-12.34982212 5.85160094 -12.24633224 4.37976221 -10.5 1.6875 C-6.87174359 -0.76157308 -4.32159775 -0.28810652 0 0 Z " fill="#BFBFBF" transform="translate(268,130)"/>
<path d="M0 0 C1.1079276 3.32378281 1.11204374 5.66386877 0 9 C-2.05078125 10.65234375 -2.05078125 10.65234375 -4 12 C-3.52494322 10.18641846 -3.04483958 8.37415821 -2.5625 6.5625 C-2.29566406 5.55316406 -2.02882813 4.54382813 -1.75390625 3.50390625 C-1 1 -1 1 0 0 Z " fill="#666565" transform="translate(309,215)"/>
<path d="M0 0 C2.64 0 5.28 0 8 0 C8 0.99 8 1.98 8 3 C7.01 3.66 6.02 4.32 5 5 C4.34 4.01 3.68 3.02 3 2 C2.01 1.34 1.02 0.68 0 0 Z " fill="#403F3F" transform="translate(194,318)"/>
<path d="M0 0 C0 3 0 3 -2.5 5.6875 C-3.325 6.450625 -4.15 7.21375 -5 8 C-5.66 7.67 -6.32 7.34 -7 7 C-4.66666667 4.66666667 -2.33333333 2.33333333 0 0 Z " fill="#D4D2D2" transform="translate(141,108)"/>
</svg>
